<svg id="Logo_CertiSign" data-name="Logo CertiSign" xmlns="http://www.w3.org/2000/svg" width="49" height="35.08" viewBox="0 0 49 35.08">
  <path id="Caminho_6" data-name="Caminho 6" d="M34.029,21.606a3.66,3.66,0,0,1-2.649.962,4.007,4.007,0,0,1-1.251-.2c-.029-.009-.059-.022-.088-.032A13.364,13.364,0,0,1,10.3,28.21a.48.48,0,0,0-.42-.06l-4.256,1.37,1.274-4.3a.446.446,0,0,0-.066-.389A13.363,13.363,0,1,1,30.076,11.975a3.385,3.385,0,0,1,2.132-.67,4.751,4.751,0,0,1,1.18.156c.189.048.379.109.574.179A17.12,17.12,0,1,0,2.908,25.661L.025,34.439a.49.49,0,0,0,.616.617l8.953-2.882A17.127,17.127,0,0,0,34.354,21.236,3.139,3.139,0,0,1,34.029,21.606Z" transform="translate(0)" fill="#fff"/>
  <path id="Caminho_7" data-name="Caminho 7" d="M18.9,35.573a4.109,4.109,0,0,1-.714.238,3.069,3.069,0,0,1-.689.079,3.182,3.182,0,0,1-1.292-.272,3.632,3.632,0,0,1-1.133-.79,3.948,3.948,0,0,1-.913-1.521,6.634,6.634,0,0,1-.3-2.113,5.128,5.128,0,0,1,1-3.283,3.125,3.125,0,0,1,2.557-1.266,4.459,4.459,0,0,1,.757.065,4.536,4.536,0,0,1,.726.186v2.135a2.3,2.3,0,0,0-.466-.2,1.635,1.635,0,0,0-.447-.068,1.248,1.248,0,0,0-1.133.625,3.547,3.547,0,0,0-.386,1.838A3.4,3.4,0,0,0,16.852,33a1.2,1.2,0,0,0,1.081.625,1.721,1.721,0,0,0,.5-.073,2.028,2.028,0,0,0,.469-.213v2.23Z" transform="translate(-7.453 -14.328)" fill="#fff"/>
  <path id="Caminho_8" data-name="Caminho 8" d="M30.847,36.608a2.631,2.631,0,0,1-.854,1.728,2.7,2.7,0,0,1-1.846.631,2.52,2.52,0,0,1-2.04-.85,3.658,3.658,0,0,1-.717-2.424,3.731,3.731,0,0,1,.723-2.45,2.485,2.485,0,0,1,2.02-.872,2.707,2.707,0,0,1,2.113.774,3.393,3.393,0,0,1,.7,2.336c0,.122,0,.214,0,.278a1.5,1.5,0,0,1-.015.173h-3.32v.085a2.27,2.27,0,0,0,.156.988.533.533,0,0,0,.512.3.566.566,0,0,0,.426-.17,1.074,1.074,0,0,0,.236-.524Zm-3.24-1.725h1.342a1.506,1.506,0,0,0-.168-.8.56.56,0,0,0-.506-.266.488.488,0,0,0-.426.26A2.149,2.149,0,0,0,27.607,34.883Z" transform="translate(-13.653 -17.407)" fill="#fff"/>
  <path id="Caminho_9" data-name="Caminho 9" d="M37.984,38.787V32.543h2.131v.872a2.119,2.119,0,0,1,1.7-1.05v2.2h-.049a1.7,1.7,0,0,0-1.172.314A1.5,1.5,0,0,0,40.263,36v2.787H37.984Z" transform="translate(-20.425 -17.403)" fill="#fff"/>
  <path id="Caminho_10" data-name="Caminho 10" d="M47.687,36.86V32.592h-.754V30.616h.754V28.781h2.284v1.835h.814v1.976h-.814V36.86Z" transform="translate(-25.237 -15.476)" fill="#fff"/>
  <path id="Caminho_11" data-name="Caminho 11" d="M63.4,32.749a5.569,5.569,0,0,0,.984.64,1.838,1.838,0,0,0,.787.22.7.7,0,0,0,.493-.176.578.578,0,0,0,.193-.445q0-.317-.649-.926l-.025-.025a7.8,7.8,0,0,1-1.439-1.6,2.586,2.586,0,0,1,.45-3.083,2.752,2.752,0,0,1,1.975-.728,3.975,3.975,0,0,1,.976.128,5.651,5.651,0,0,1,1.044.385v2.311a4.146,4.146,0,0,0-.839-.533,1.73,1.73,0,0,0-.717-.181.663.663,0,0,0-.453.15.488.488,0,0,0-.171.388q0,.341.643.841l.074.062a6.062,6.062,0,0,1,1.445,1.467A2.674,2.674,0,0,1,68.5,33a2.765,2.765,0,0,1-.827,2.1,3.04,3.04,0,0,1-2.193.79,3.332,3.332,0,0,1-1.035-.164,4.494,4.494,0,0,1-1.047-.512V32.749Z" transform="translate(-34.093 -14.318)" fill="#fff"/>
  <path id="Caminho_12" data-name="Caminho 12" d="M75.2,26.574a1.3,1.3,0,0,1,.392-.96,1.316,1.316,0,0,1,.962-.388,1.348,1.348,0,1,1,0,2.7,1.313,1.313,0,0,1-.962-.391A1.3,1.3,0,0,1,75.2,26.574Zm.214,8.379V28.709h2.273v6.244Z" transform="translate(-40.434 -13.565)" fill="#fff"/>
  <path id="Caminho_13" data-name="Caminho 13" d="M84.7,32.543h2.156v5.97a2.422,2.422,0,0,1-.729,1.884,2.961,2.961,0,0,1-2.071.665,2.726,2.726,0,0,1-1.779-.512,2.1,2.1,0,0,1-.7-1.537h1.905a.6.6,0,0,0,.168.4.562.562,0,0,0,.407.147.574.574,0,0,0,.478-.21.975.975,0,0,0,.165-.612V37.677a2.07,2.07,0,0,1-.634.62,1.491,1.491,0,0,1-.774.2,1.57,1.57,0,0,1-1.4-.808,4.25,4.25,0,0,1-.506-2.254,4.3,4.3,0,0,1,.5-2.257,1.561,1.561,0,0,1,1.394-.8,1.522,1.522,0,0,1,.754.192,2.366,2.366,0,0,1,.668.595Zm-1.054,2.92a2.588,2.588,0,0,0,.134.951.436.436,0,0,0,.4.323c.171,0,.3-.1.386-.314a2.7,2.7,0,0,0,.128-.96,2.751,2.751,0,0,0-.131-.969c-.088-.22-.215-.329-.383-.329s-.31.11-.4.332A2.64,2.64,0,0,0,83.647,35.463Z" transform="translate(-43.764 -17.411)" fill="#fff"/>
  <path id="Caminho_14" data-name="Caminho 14" d="M94.34,38.874V32.63h2.18v.926a2.187,2.187,0,0,1,.748-.784,1.951,1.951,0,0,1,1.011-.253,1.366,1.366,0,0,1,1.081.421,1.824,1.824,0,0,1,.37,1.238v4.7H97.475V35.239a.7.7,0,0,0-.11-.43.393.393,0,0,0-.331-.144.377.377,0,0,0-.321.164.744.744,0,0,0-.119.445v3.6H94.34Z" transform="translate(-50.729 -17.486)" fill="#fff"/>
  <path id="Caminho_15" data-name="Caminho 15" d="M57.794,28.552a1.327,1.327,0,1,0-1.333-1.327A1.33,1.33,0,0,0,57.794,28.552Z" transform="translate(-30.36 -13.926)" fill="#fff"/>
  <path id="Caminho_16" data-name="Caminho 16" d="M58.052,32.182H56.9a1.029,1.029,0,0,0-1.031,1.026v1.847a1.207,1.207,0,0,0,.383.884.448.448,0,0,1,.134.239l.363,1.985a.545.545,0,0,0,.5.5H57.7a.544.544,0,0,0,.5-.5l.361-1.973a.481.481,0,0,1,.143-.258,1.209,1.209,0,0,0,.376-.877V33.208A1.026,1.026,0,0,0,58.052,32.182Z" transform="translate(-30.042 -17.305)" fill="#fff"/>
</svg>
