<svg xmlns="http://www.w3.org/2000/svg" width="40" height="40.307" viewBox="0 0 40 40.307">
  <g id="Logo_Certi_RX" data-name="Logo Certi RX" transform="translate(-141 -11.799)">
    <g id="Grupo_17" data-name="Grupo 17" transform="translate(149.382 22.267)">
      <g id="Grupo_15" data-name="Grupo 15" transform="translate(0 0.354)">
        <path id="Caminho_69" data-name="Caminho 69" d="M1276.959,150.945a4.231,4.231,0,0,1-.731.244,3.153,3.153,0,0,1-.707.081,3.264,3.264,0,0,1-1.325-.278,3.763,3.763,0,0,1-1.162-.811,4.049,4.049,0,0,1-.936-1.562,6.839,6.839,0,0,1-.308-2.169,5.272,5.272,0,0,1,1.026-3.37,3.2,3.2,0,0,1,2.622-1.3,4.52,4.52,0,0,1,.775.066,4.786,4.786,0,0,1,.744.191v2.191a2.327,2.327,0,0,0-.477-.2,1.65,1.65,0,0,0-.458-.069,1.281,1.281,0,0,0-1.162.642,3.639,3.639,0,0,0-.4,1.887,3.5,3.5,0,0,0,.392,1.818,1.233,1.233,0,0,0,1.108.642,1.761,1.761,0,0,0,.512-.075,2.029,2.029,0,0,0,.48-.219Z" transform="translate(-1271.791 -141.782)" fill="#fff"/>
        <path id="Caminho_70" data-name="Caminho 70" d="M1309.627,162.206a2.7,2.7,0,0,1-.876,1.774,2.763,2.763,0,0,1-1.893.648,2.58,2.58,0,0,1-2.091-.873,3.761,3.761,0,0,1-.735-2.488,3.839,3.839,0,0,1,.741-2.516,2.54,2.54,0,0,1,2.072-.9,2.77,2.77,0,0,1,2.166.795,3.488,3.488,0,0,1,.716,2.4q0,.188,0,.285a1.477,1.477,0,0,1-.016.178h-3.4v.088a2.339,2.339,0,0,0,.16,1.014.548.548,0,0,0,.525.307.575.575,0,0,0,.436-.175,1.1,1.1,0,0,0,.242-.538Zm-3.322-1.771h1.375a1.545,1.545,0,0,0-.173-.817.573.573,0,0,0-.518-.272.5.5,0,0,0-.437.266A2.211,2.211,0,0,0,1306.305,160.435Z" transform="translate(-1298.566 -155.14)" fill="#fff"/>
        <path id="Caminho_71" data-name="Caminho 71" d="M1339.238,164.447v-6.409h2.185v.9a2.174,2.174,0,0,1,1.746-1.076v2.259h-.051a1.749,1.749,0,0,0-1.2.322,1.545,1.545,0,0,0-.342,1.149v2.86Z" transform="translate(-1327.803 -155.14)" fill="#fff"/>
        <path id="Caminho_72" data-name="Caminho 72" d="M1365.028,156.075v-4.381h-.772v-2.028h.772v-1.884h2.343v1.884h.835v2.028h-.835v4.381Z" transform="translate(-1348.58 -146.768)" fill="#fff"/>
      </g>
      <g id="Grupo_16" data-name="Grupo 16" transform="translate(19.912)">
        <ellipse id="Elipse_9" data-name="Elipse 9" cx="1.366" cy="1.362" rx="1.366" ry="1.362" transform="translate(0.281)" fill="#fff"/>
        <path id="Caminho_73" data-name="Caminho 73" d="M1391.479,157.337H1390.3a1.055,1.055,0,0,0-1.056,1.053v1.9a1.242,1.242,0,0,0,.394.908.448.448,0,0,1,.137.246l.372,2.037a.559.559,0,0,0,.512.511h.465a.557.557,0,0,0,.512-.511l.37-2.026a.492.492,0,0,1,.147-.265,1.242,1.242,0,0,0,.385-.9v-1.9A1.054,1.054,0,0,0,1391.479,157.337Z" transform="translate(-1389.241 -154.355)" fill="#fff"/>
      </g>
    </g>
    <g id="Grupo_18" data-name="Grupo 18" transform="translate(151.106 29.876)">
      <path id="Caminho_74" data-name="Caminho 74" d="M1281.96,194.883a5.686,5.686,0,0,0,1,.654,1.884,1.884,0,0,0,.8.224.717.717,0,0,0,.5-.181.591.591,0,0,0,.2-.455q0-.324-.663-.947l-.025-.025a7.962,7.962,0,0,1-1.469-1.633,2.645,2.645,0,0,1,.459-3.151,2.811,2.811,0,0,1,2.017-.745,4.057,4.057,0,0,1,1,.131,5.845,5.845,0,0,1,1.066.393v2.362a4.3,4.3,0,0,0-.857-.545,1.774,1.774,0,0,0-.732-.184.677.677,0,0,0-.462.153.5.5,0,0,0-.175.4q0,.349.656.86.05.044.075.062a6.215,6.215,0,0,1,1.476,1.5,2.737,2.737,0,0,1,.338,1.387,2.824,2.824,0,0,1-.844,2.141,3.1,3.1,0,0,1-2.238.807,3.4,3.4,0,0,1-1.057-.168,4.591,4.591,0,0,1-1.069-.524Z" transform="translate(-1281.96 -187.965)" fill="#fff"/>
      <path id="Caminho_75" data-name="Caminho 75" d="M1313.772,186.094a1.326,1.326,0,0,1,.4-.982,1.344,1.344,0,0,1,.982-.4,1.322,1.322,0,0,1,.976.4,1.408,1.408,0,0,1,0,1.957,1.314,1.314,0,0,1-.972.4,1.363,1.363,0,0,1-1.382-1.377Zm.219,8.564v-6.382h2.319v6.382Z" transform="translate(-1308.379 -184.717)" fill="#fff"/>
      <path id="Caminho_76" data-name="Caminho 76" d="M1334.4,204.873h2.2v6.1a2.476,2.476,0,0,1-.744,1.926,3.024,3.024,0,0,1-2.113.679,2.786,2.786,0,0,1-1.817-.524,2.148,2.148,0,0,1-.716-1.571h1.945a.612.612,0,0,0,.172.411.569.569,0,0,0,.416.15.583.583,0,0,0,.487-.215,1,1,0,0,0,.169-.626v-1.084a2.116,2.116,0,0,1-.647.633,1.526,1.526,0,0,1-.791.209,1.6,1.6,0,0,1-1.429-.826,5.434,5.434,0,0,1-.006-4.609,1.591,1.591,0,0,1,1.422-.823,1.546,1.546,0,0,1,.769.2,2.42,2.42,0,0,1,.682.608Zm-1.076,2.985a2.65,2.65,0,0,0,.137.972.447.447,0,0,0,.413.33.428.428,0,0,0,.394-.321,2.756,2.756,0,0,0,.131-.982,2.8,2.8,0,0,0-.134-.991q-.134-.337-.391-.337t-.409.34A2.691,2.691,0,0,0,1333.323,207.859Z" transform="translate(-1322.699 -201.327)" fill="#fff"/>
      <path id="Caminho_77" data-name="Caminho 77" d="M1367.068,211.605v-6.382h2.226v.947a2.236,2.236,0,0,1,.763-.8,1.991,1.991,0,0,1,1.031-.259,1.392,1.392,0,0,1,1.1.43,1.863,1.863,0,0,1,.378,1.265v4.8h-2.3v-3.715a.714.714,0,0,0-.113-.439.4.4,0,0,0-.338-.146.385.385,0,0,0-.328.168.76.76,0,0,0-.122.455v3.677Z" transform="translate(-1352.639 -201.664)" fill="#fff"/>
    </g>
    <path id="Caminho_78" data-name="Caminho 78" d="M1242.707,77.746a19.666,19.666,0,0,0-17.018,29.484l-3.309,10.086a.562.562,0,0,0,.709.708l10.274-3.311a19.661,19.661,0,1,0,9.344-36.967Zm0,35.017a15.246,15.246,0,0,1-8.537-2.6.555.555,0,0,0-.481-.07l-4.885,1.574,1.463-4.94a.518.518,0,0,0-.076-.448,15.331,15.331,0,1,1,12.517,6.485Z" transform="translate(-1081.352 -65.947)" fill="#fff"/>
  </g>
</svg>
