<svg id="Icone_carrinho" data-name="Icone carrinho" xmlns="http://www.w3.org/2000/svg" width="20.727" height="19" viewBox="0 0 20.727 19">
  <path id="Caminho_1" data-name="Caminho 1" d="M19.8,3.3H5.123l-.232-1.53a2.048,2.048,0,0,0-.7-1.267A2.112,2.112,0,0,0,2.819,0H.93A.938.938,0,0,0,.272.268a.9.9,0,0,0,0,1.293.938.938,0,0,0,.657.268H2.822a.235.235,0,0,1,.155.057.227.227,0,0,1,.077.144l1.432,9.653a2.518,2.518,0,0,0,.866,1.526,2.6,2.6,0,0,0,1.665.609h9.672a2.584,2.584,0,0,0,1.618-.565,2.508,2.508,0,0,0,.89-1.444L20.71,4.39a.9.9,0,0,0-.012-.4.908.908,0,0,0-.183-.356.927.927,0,0,0-.32-.245A.943.943,0,0,0,19.8,3.3Z" fill="#fff"/>
  <path id="Caminho_2" data-name="Caminho 2" d="M6.872,15.545a1.774,1.774,0,0,0-1.205.537A1.706,1.706,0,0,0,5.7,18.49,1.776,1.776,0,0,0,6.913,19h.042a1.774,1.774,0,0,0,1.209-.546,1.706,1.706,0,0,0-.058-2.419A1.777,1.777,0,0,0,6.872,15.545Z" fill="#fff"/>
  <path id="Caminho_3" data-name="Caminho 3" d="M15.505,15.545a1.774,1.774,0,0,0-1.205.537,1.706,1.706,0,0,0,.028,2.408A1.776,1.776,0,0,0,15.546,19h.042a1.774,1.774,0,0,0,1.209-.546,1.706,1.706,0,0,0-.058-2.419A1.777,1.777,0,0,0,15.505,15.545Z" fill="#fff"/>
</svg>
