<svg xmlns="http://www.w3.org/2000/svg" xmlns:xlink="http://www.w3.org/1999/xlink" width="25" height="25" viewBox="0 0 25 25">
  <defs>
    <clipPath id="clip-path">
      <circle id="Elipse_7" data-name="Elipse 7" cx="12.5" cy="12.5" r="12.5" transform="translate(999 12)" fill="#fff" stroke="#fff" stroke-width="2"/>
    </clipPath>
    <clipPath id="clip-path-2">
      <rect id="Retângulo_56" data-name="Retângulo 56" width="34.184" height="25.001" fill="none"/>
    </clipPath>
    <clipPath id="clip-path-3">
      <path id="Caminho_397" data-name="Caminho 397" d="M495.026,308.14A4.969,4.969,0,1,0,500,303.171a4.969,4.969,0,0,0-4.969,4.969" transform="translate(-495.026 -303.171)" fill="none"/>
    </clipPath>
  </defs>
  <g id="Grupo_de_máscara_1" data-name="Grupo de máscara 1" transform="translate(-999 -12)" clip-path="url(#clip-path)">
    <g id="bandeira_br" data-name="bandeira br" transform="translate(994.407 12)">
      <rect id="Retângulo_55" data-name="Retângulo 55" width="34.184" height="25.001" transform="translate(0 0)" fill="#009b3a"/>
      <path id="Caminho_393" data-name="Caminho 393" d="M232.037,199.12l-11.821,7.559,11.821,7.569,11.821-7.564Z" transform="translate(-214.725 -194.155)" fill="#fedf00"/>
      <g id="Grupo_63" data-name="Grupo 63" transform="translate(0 0)">
        <g id="Grupo_62" data-name="Grupo 62" transform="translate(0 0)" clip-path="url(#clip-path-2)">
          <path id="Caminho_394" data-name="Caminho 394" d="M504.964,308.14A4.969,4.969,0,1,1,500,303.171a4.969,4.969,0,0,1,4.969,4.969" transform="translate(-482.683 -295.612)" fill="#0d47a1"/>
          <path id="Caminho_395" data-name="Caminho 395" d="M747.286,431.295l-.141.106.05-.177-.137-.11h.172l.055-.173.06.173h.169l-.134.11.046.18Z" transform="translate(-728.431 -420.196)" fill="#fff"/>
        </g>
      </g>
      <g id="Grupo_65" data-name="Grupo 65" transform="translate(12.343 7.559)">
        <g id="Grupo_64" data-name="Grupo 64" clip-path="url(#clip-path-3)">
          <path id="Caminho_396" data-name="Caminho 396" d="M500.431,419.839a10.589,10.589,0,0,0-6.379-2.935,12.552,12.552,0,0,0-3.431.068l-.147-.742a13.053,13.053,0,0,1,3.636-.081,11.343,11.343,0,0,1,6.857,3.156Z" transform="translate(-490.587 -413.249)" fill="#fff"/>
        </g>
      </g>
      <g id="Grupo_67" data-name="Grupo 67" transform="translate(0 0)">
        <g id="Grupo_66" data-name="Grupo 66" transform="translate(0 0)" clip-path="url(#clip-path-2)">
          <path id="Caminho_398" data-name="Caminho 398" d="M515.377,424.922a.17.17,0,0,1-.155-.042.3.3,0,0,1-.067-.169.321.321,0,0,1,.019-.189.168.168,0,0,1,.139-.081.226.226,0,0,1,.09,0,.143.143,0,0,1,.065.038.2.2,0,0,1,.043.072.5.5,0,0,1,.024.1.452.452,0,0,1,0,.1.2.2,0,0,1-.023.079.145.145,0,0,1-.053.053.226.226,0,0,1-.086.027m-.007-.055a.148.148,0,0,0,.056-.017.081.081,0,0,0,.033-.036.158.158,0,0,0,.013-.059.484.484,0,0,0,0-.084.542.542,0,0,0-.018-.09.162.162,0,0,0-.028-.056.081.081,0,0,0-.041-.027.145.145,0,0,0-.058,0,.15.15,0,0,0-.056.017.08.08,0,0,0-.033.037.155.155,0,0,0-.012.061.59.59,0,0,0,.006.092.506.506,0,0,0,.017.083.15.15,0,0,0,.027.053.081.081,0,0,0,.042.027.152.152,0,0,0,.059,0" transform="translate(-502.306 -413.856)" fill="#009b3a"/>
          <path id="Caminho_399" data-name="Caminho 399" d="M540.879,422.075a.323.323,0,0,1,.082,0,.129.129,0,0,1,.055.023.1.1,0,0,1,.032.041.178.178,0,0,1,.013.058.114.114,0,0,1-.024.086.126.126,0,0,1-.072.042l.118.211-.08.006-.107-.208-.087.006.015.215-.068,0-.034-.475Zm-.074.215.1-.007a.124.124,0,0,0,.064-.021.061.061,0,0,0,.022-.058.067.067,0,0,0-.029-.058.141.141,0,0,0-.078-.011l-.089.006Z" transform="translate(-527.24 -411.55)" fill="#009b3a"/>
          <path id="Caminho_400" data-name="Caminho 400" d="M565.24,421.487l-.009-.476.158,0a.184.184,0,0,1,.155.058.293.293,0,0,1,.052.183.264.264,0,0,1-.045.174.189.189,0,0,1-.152.061Zm.061-.426.007.374.089,0a.191.191,0,0,0,.067-.011.082.082,0,0,0,.04-.032.133.133,0,0,0,.018-.056.6.6,0,0,0,0-.084.732.732,0,0,0-.007-.091.152.152,0,0,0-.02-.059.078.078,0,0,0-.041-.032.192.192,0,0,0-.067-.009Z" transform="translate(-551.138 -410.511)" fill="#009b3a"/>
          <path id="Caminho_401" data-name="Caminho 401" d="M590.464,421.41l.208.006v.051l-.277-.008.014-.476.28.008v.051l-.212-.006,0,.151.182.005v.051l-.182-.005Z" transform="translate(-575.673 -410.487)" fill="#009b3a"/>
          <path id="Caminho_402" data-name="Caminho 402" d="M611.6,421.849l.1.008-.039.474-.066-.005.032-.394-.157.384-.068-.006-.093-.4-.032.395-.066-.005.039-.475.1.008.093.407Z" transform="translate(-595.974 -411.303)" fill="#009b3a"/>
          <path id="Caminho_403" data-name="Caminho 403" d="M657.543,427.687l.206.035-.009.05-.273-.047.081-.469.276.048-.009.05-.208-.036-.026.149.18.031-.009.05-.18-.031Z" transform="translate(-641.074 -416.603)" fill="#009b3a"/>
          <path id="Caminho_404" data-name="Caminho 404" d="M694.928,435.531l-.045.171-.066-.017.121-.46.153.04a.3.3,0,0,1,.077.03.127.127,0,0,1,.044.04.1.1,0,0,1,.016.053.229.229,0,0,1-.009.068.175.175,0,0,1-.026.058.11.11,0,0,1-.044.037.156.156,0,0,1-.065.013.345.345,0,0,1-.088-.013Zm.063-.241-.05.191.077.02a.141.141,0,0,0,.09,0,.093.093,0,0,0,.044-.067.1.1,0,0,0,0-.083.119.119,0,0,0-.071-.041Z" transform="translate(-677.493 -424.372)" fill="#009b3a"/>
          <path id="Caminho_405" data-name="Caminho 405" d="M717.482,441.72a.313.313,0,0,1,.075.033.131.131,0,0,1,.042.041.1.1,0,0,1,.014.05.183.183,0,0,1-.01.059.114.114,0,0,1-.054.071.125.125,0,0,1-.082.012l.031.239-.077-.025-.022-.233-.083-.027-.066.205-.065-.021.145-.453Zm-.149.172.094.03a.124.124,0,0,0,.067,0,.061.061,0,0,0,.042-.046.066.066,0,0,0-.006-.064.14.14,0,0,0-.068-.039l-.085-.027Z" transform="translate(-699.305 -430.66)" fill="#009b3a"/>
          <path id="Caminho_406" data-name="Caminho 406" d="M741.125,451.591a.169.169,0,0,1-.116-.11.3.3,0,0,1,.022-.181.322.322,0,0,1,.106-.157.169.169,0,0,1,.161-.005.226.226,0,0,1,.077.046.146.146,0,0,1,.039.065.2.2,0,0,1,0,.084.5.5,0,0,1-.028.1.462.462,0,0,1-.046.091.194.194,0,0,1-.058.058.144.144,0,0,1-.072.022.226.226,0,0,1-.088-.017m.02-.052a.147.147,0,0,0,.057.011.081.081,0,0,0,.046-.016.154.154,0,0,0,.039-.045.469.469,0,0,0,.036-.076.547.547,0,0,0,.027-.088.165.165,0,0,0,0-.063.081.081,0,0,0-.023-.044.147.147,0,0,0-.05-.03.151.151,0,0,0-.057-.011.08.08,0,0,0-.047.017.157.157,0,0,0-.04.048.6.6,0,0,0-.038.084.516.516,0,0,0-.025.081.149.149,0,0,0,0,.06.082.082,0,0,0,.024.043.151.151,0,0,0,.05.03" transform="translate(-722.527 -439.873)" fill="#009b3a"/>
          <path id="Caminho_407" data-name="Caminho 407" d="M764.755,461.1l-.019-.008-.028-.01-.016,0-.008,0a.014.014,0,0,1,0-.008.07.07,0,0,1,.006-.027.053.053,0,0,1,.011-.02l.137.061-.082.183a.219.219,0,0,1-.068.014.194.194,0,0,1-.092-.02.235.235,0,0,1-.073-.047.121.121,0,0,1-.033-.063.19.19,0,0,1,0-.081.583.583,0,0,1,.037-.1.6.6,0,0,1,.053-.1.2.2,0,0,1,.058-.057.122.122,0,0,1,.069-.017.233.233,0,0,1,.084.022.255.255,0,0,1,.059.038.181.181,0,0,1,.045.054l-.047.03a.134.134,0,0,0-.033-.045.187.187,0,0,0-.047-.03.14.14,0,0,0-.055-.014.072.072,0,0,0-.045.015.173.173,0,0,0-.04.047.682.682,0,0,0-.041.08.669.669,0,0,0-.032.084.17.17,0,0,0-.008.061.071.071,0,0,0,.018.043.142.142,0,0,0,.047.032.123.123,0,0,0,.038.008.137.137,0,0,0,.053-.006Z" transform="translate(-745.425 -449.297)" fill="#009b3a"/>
          <path id="Caminho_408" data-name="Caminho 408" d="M784.389,469.486a.323.323,0,0,1,.069.045.132.132,0,0,1,.035.048.1.1,0,0,1,.006.052.181.181,0,0,1-.019.056.114.114,0,0,1-.065.06.124.124,0,0,1-.083,0l-.009.241-.071-.037.017-.234-.078-.04-.1.192-.061-.031.218-.423Zm-.175.146.088.045a.124.124,0,0,0,.066.016.061.061,0,0,0,.049-.038.067.067,0,0,0,.005-.064.141.141,0,0,0-.061-.05l-.079-.041Z" transform="translate(-764.482 -457.71)" fill="#009b3a"/>
          <path id="Caminho_409" data-name="Caminho 409" d="M804.947,481.4l.18.105-.026.044-.239-.14.24-.411.242.141-.026.044-.183-.107-.076.13.157.092-.026.044-.157-.092Z" transform="translate(-784.794 -469.003)" fill="#009b3a"/>
          <path id="Caminho_410" data-name="Caminho 410" d="M824.692,494.267a.15.15,0,0,0-.01.055.12.12,0,0,0,.01.044.121.121,0,0,0,.024.035.175.175,0,0,0,.032.027.1.1,0,0,0,.064.018.06.06,0,0,0,.048-.026.057.057,0,0,0,.008-.049.211.211,0,0,0-.026-.053.666.666,0,0,0-.042-.057.362.362,0,0,1-.04-.06.168.168,0,0,1-.019-.063.1.1,0,0,1,.018-.065.113.113,0,0,1,.083-.053.175.175,0,0,1,.116.035.18.18,0,0,1,.074.088.184.184,0,0,1,0,.117l-.059-.024a.139.139,0,0,0,0-.078.109.109,0,0,0-.048-.057.1.1,0,0,0-.065-.019.063.063,0,0,0-.047.029.052.052,0,0,0-.006.047.214.214,0,0,0,.027.052c.012.018.026.037.042.057a.383.383,0,0,1,.04.06.175.175,0,0,1,.02.062.094.094,0,0,1-.017.064.121.121,0,0,1-.086.056.169.169,0,0,1-.119-.033.214.214,0,0,1-.09-.1.208.208,0,0,1,0-.132Z" transform="translate(-804.056 -481.701)" fill="#009b3a"/>
          <path id="Caminho_411" data-name="Caminho 411" d="M844.636,508.287a.151.151,0,0,0-.013.054.119.119,0,0,0,.007.045.123.123,0,0,0,.022.037.18.18,0,0,0,.031.029.1.1,0,0,0,.063.021.059.059,0,0,0,.049-.024.057.057,0,0,0,.011-.049.218.218,0,0,0-.023-.055.646.646,0,0,0-.039-.059.369.369,0,0,1-.037-.062.17.17,0,0,1-.016-.064.1.1,0,0,1,.022-.064.113.113,0,0,1,.086-.049.175.175,0,0,1,.114.042.179.179,0,0,1,.068.092.184.184,0,0,1-.005.116l-.058-.027a.138.138,0,0,0,.007-.078.11.11,0,0,0-.045-.059.1.1,0,0,0-.064-.022.062.062,0,0,0-.048.026.052.052,0,0,0-.009.047.229.229,0,0,0,.024.054q.017.028.039.059a.4.4,0,0,1,.036.062.175.175,0,0,1,.016.063.094.094,0,0,1-.021.063.122.122,0,0,1-.089.051.169.169,0,0,1-.117-.04.213.213,0,0,1-.084-.106.207.207,0,0,1,.01-.131Z" transform="translate(-823.501 -495.38)" fill="#009b3a"/>
          <path id="Caminho_412" data-name="Caminho 412" d="M863.842,523.977a.169.169,0,0,1-.074-.142.3.3,0,0,1,.078-.164.321.321,0,0,1,.151-.114.169.169,0,0,1,.154.047.226.226,0,0,1,.058.069.143.143,0,0,1,.016.074.2.2,0,0,1-.024.081.492.492,0,0,1-.06.089.448.448,0,0,1-.073.072.193.193,0,0,1-.073.037.145.145,0,0,1-.075,0,.226.226,0,0,1-.078-.044m.036-.043a.143.143,0,0,0,.05.029.081.081,0,0,0,.049,0,.16.16,0,0,0,.052-.03.477.477,0,0,0,.059-.061.549.549,0,0,0,.053-.075.165.165,0,0,0,.022-.059.082.082,0,0,0-.008-.049.146.146,0,0,0-.038-.044.151.151,0,0,0-.051-.029.08.08,0,0,0-.05,0,.158.158,0,0,0-.053.033.574.574,0,0,0-.063.067.509.509,0,0,0-.049.069.154.154,0,0,0-.02.056.082.082,0,0,0,.009.049.149.149,0,0,0,.038.044" transform="translate(-842.23 -510.498)" fill="#009b3a"/>
          <path id="Caminho_413" data-name="Caminho 413" d="M522.064,456.549l-.141.106.05-.177-.137-.11h.172l.055-.173.06.173h.169l-.134.11.046.18Z" transform="translate(-508.825 -444.82)" fill="#fff"/>
          <path id="Caminho_414" data-name="Caminho 414" d="M539.025,539.807l-.141.105.05-.176-.137-.11h.172l.055-.173.06.173h.169l-.134.11.046.18Z" transform="translate(-525.363 -526.003)" fill="#fff"/>
          <path id="Caminho_415" data-name="Caminho 415" d="M605.1,599.182l-.141.106.05-.177-.137-.11h.172l.055-.173.06.173h.169l-.134.11.046.18Z" transform="translate(-589.787 -583.897)" fill="#fff"/>
          <path id="Caminho_416" data-name="Caminho 416" d="M685.382,582.218l-.141.105.05-.177-.137-.11h.173l.055-.173.06.173h.169l-.134.11.046.18Z" transform="translate(-668.071 -567.356)" fill="#fff"/>
          <path id="Caminho_417" data-name="Caminho 417" d="M690.738,655.048l-.057.042.02-.071-.055-.044h.069l.022-.069.024.069h.068l-.054.044.019.072Z" transform="translate(-673.426 -638.577)" fill="#fff"/>
          <path id="Caminho_418" data-name="Caminho 418" d="M747,629.482l-.115.086.041-.144-.111-.089h.141l.045-.141.049.141h.138l-.109.089.038.146Z" transform="translate(-728.198 -613.506)" fill="#fff"/>
          <path id="Caminho_419" data-name="Caminho 419" d="M732.753,608.083l-.09.067.032-.112-.087-.07h.11l.035-.11.038.11h.108l-.085.07.029.114Z" transform="translate(-714.341 -592.701)" fill="#fff"/>
          <path id="Caminho_420" data-name="Caminho 420" d="M766.293,613.494l-.08.06.028-.1-.077-.062h.1l.031-.1.034.1h.1l-.075.062.026.1Z" transform="translate(-747.061 -598.003)" fill="#fff"/>
          <path id="Caminho_421" data-name="Caminho 421" d="M787.713,624.022l-.108.081.038-.135-.1-.084h.132l.042-.132.046.132h.129l-.1.084.035.137Z" transform="translate(-767.902 -608.199)" fill="#fff"/>
          <path id="Caminho_422" data-name="Caminho 422" d="M788.777,645.918l-.091.068.032-.114-.088-.071h.111l.036-.112.039.112h.109l-.086.071.03.116Z" transform="translate(-768.967 -629.59)" fill="#fff"/>
          <path id="Caminho_423" data-name="Caminho 423" d="M809.092,610.058l-.091.068.032-.114-.088-.071h.111l.036-.112.039.112h.109l-.086.071.03.116Z" transform="translate(-788.775 -594.625)" fill="#fff"/>
          <path id="Caminho_424" data-name="Caminho 424" d="M788.414,606.91l-.08.06.028-.1-.077-.062h.1l.031-.1.034.1h.1l-.075.062.026.1Z" transform="translate(-768.631 -591.583)" fill="#fff"/>
          <path id="Caminho_425" data-name="Caminho 425" d="M824.022,598.925l-.108.081.038-.135-.1-.084h.132l.042-.133.046.133h.13l-.1.084.035.138Z" transform="translate(-803.306 -583.727)" fill="#fff"/>
          <path id="Caminho_426" data-name="Caminho 426" d="M835.854,582.556l-.108.081.038-.135-.1-.084h.132l.042-.133.046.133h.13l-.1.084.035.138Z" transform="translate(-814.843 -567.767)" fill="#fff"/>
          <path id="Caminho_427" data-name="Caminho 427" d="M826.64,563.446l-.128.1.045-.16-.124-.1h.156l.05-.157.054.157h.154l-.121.1.042.163Z" transform="translate(-805.828 -549.084)" fill="#fff"/>
          <path id="Caminho_428" data-name="Caminho 428" d="M856.756,567.814l-.089.067.032-.112-.087-.07h.109l.035-.11.038.11h.107l-.085.07.029.114Z" transform="translate(-835.253 -553.438)" fill="#fff"/>
          <path id="Caminho_429" data-name="Caminho 429" d="M742.605,485.113l-.1.074.035-.124-.1-.077h.121l.039-.122.042.122h.119l-.094.077.033.126Z" transform="translate(-723.933 -472.775)" fill="#fff"/>
          <path id="Caminho_430" data-name="Caminho 430" d="M563.448,532.659l-.082.061.029-.1-.08-.064h.1l.032-.1.035.1h.1l-.078.064.027.1Z" transform="translate(-549.27 -519.177)" fill="#fff"/>
          <path id="Caminho_431" data-name="Caminho 431" d="M516.993,560.092l-.118.088.042-.147-.114-.091h.144l.046-.144.05.144h.141l-.112.091.039.15Z" transform="translate(-503.917 -545.839)" fill="#fff"/>
          <path id="Caminho_432" data-name="Caminho 432" d="M584.046,562.97l-.1.078.037-.13-.1-.081h.127l.041-.128.044.128h.125l-.1.081.034.133Z" transform="translate(-569.32 -548.678)" fill="#fff"/>
          <path id="Caminho_433" data-name="Caminho 433" d="M579.336,584.036l-.087.065.031-.109-.084-.067h.106l.034-.107.037.107h.1l-.082.067.028.11Z" transform="translate(-564.755 -569.262)" fill="#fff"/>
          <path id="Caminho_434" data-name="Caminho 434" d="M611.2,502.543l-.11.083.039-.138-.107-.086h.135l.043-.136.047.136h.133l-.1.086.036.141Z" transform="translate(-595.786 -489.742)" fill="#fff"/>
          <path id="Caminho_435" data-name="Caminho 435" d="M687.319,526.65l-.11.083.039-.138-.107-.086h.135l.043-.136.047.136h.133l-.1.086.036.141Z" transform="translate(-670.008 -513.249)" fill="#fff"/>
          <path id="Caminho_436" data-name="Caminho 436" d="M710.645,544.508l-.111.083.039-.138-.107-.086h.135l.043-.136.047.136h.133l-.1.086.036.141Z" transform="translate(-692.752 -530.661)" fill="#fff"/>
          <path id="Caminho_437" data-name="Caminho 437" d="M668.524,546.8l-.083.062.029-.1-.081-.064h.1l.033-.1.035.1h.1l-.079.064.027.106Z" transform="translate(-651.724 -532.966)" fill="#fff"/>
          <path id="Caminho_438" data-name="Caminho 438" d="M680.815,561.642l-.061.046.022-.077-.059-.048h.075l.024-.075.026.075h.074l-.058.048.02.078Z" transform="translate(-663.744 -547.488)" fill="#fff"/>
        </g>
      </g>
    </g>
  </g>
</svg>
